<?xml version="1.0" encoding="UTF-8"?>
<svg id="Layer_1" xmlns="http://www.w3.org/2000/svg" version="1.1" viewBox="0 0 32 32">
  <!-- Generator: Adobe Illustrator 29.5.1, SVG Export Plug-In . SVG Version: 2.1.0 Build 141)  -->
  <defs>
    <style>
      .st0 {
        fill: #1dcd9f;
      }
    </style>
  </defs>
  <path class="st0" d="M14,14.5c0,.83-.67,1.5-1.5,1.5s-1.5-.67-1.5-1.5.67-1.5,1.5-1.5h0c.83,0,1.5.67,1.5,1.5ZM19.5,13c-.83,0-1.5.67-1.5,1.5s.67,1.5,1.5,1.5,1.5-.67,1.5-1.5h0c0-.83-.67-1.5-1.5-1.5ZM28,15v12c0,.55-.45,1-1,1-.23,0-.46-.08-.63-.23l-3.03-2.48-3.03,2.48c-.37.3-.9.3-1.27,0l-3.03-2.48-3.03,2.48c-.37.3-.9.3-1.27,0l-3.03-2.48-3.03,2.48c-.43.35-1.06.29-1.41-.14-.15-.18-.23-.4-.23-.63v-12c0-6.63,5.37-12,12-12s12,5.37,12,12ZM26,15c0-5.52-4.48-10-10-10S6,9.48,6,15v9.89l2.03-1.66c.37-.3.9-.3,1.27,0l3.03,2.48,3.03-2.48c.37-.3.9-.3,1.27,0l3.03,2.48,3.03-2.48c.37-.3.9-.3,1.27,0l2.03,1.66v-9.89Z"/>
</svg>