<?xml version="1.0" encoding="UTF-8"?>
<svg id="Layer_1" xmlns="http://www.w3.org/2000/svg" version="1.1" viewBox="0 0 32 32">
  <!-- Generator: Adobe Illustrator 29.5.1, SVG Export Plug-In . SVG Version: 2.1.0 Build 141)  -->
  <defs>
    <style>
      .st0 {
        fill: #1dcd9f;
        fill-rule: evenodd;
      }
    </style>
  </defs>
  <path class="st0" d="M13.99,17.7s-.09.07-.13.12c-.12.13-.18.3-.18.52s.1.4.29.55c.19.15.55.29,1.08.42.53.12,1.29.24,2.3.35,1.7.19,3.02.46,3.96.81.96.33,1.62.78,2,1.34.39.56.58,1.26.58,2.11,0,1.55-.71,2.8-2.14,3.77-1.43.97-3.46,1.45-6.1,1.45-2.01,0-3.62-.14-4.83-.42-1.21-.27-2.09-.65-2.64-1.14-.54-.49-.81-1.07-.81-1.72,0-.9.32-1.57.97-2,.55-.35,1.4-.61,2.54-.76-.51-.2-.9-.45-1.17-.74-.35-.38-.53-.89-.53-1.53,0-.59.16-1.12.48-1.58.32-.46.85-.84,1.58-1.13.56-.23,1.27-.4,2.12-.5-.7-.12-1.35-.31-1.95-.56-1.16-.49-2.06-1.14-2.69-1.95-.62-.82-.93-1.7-.93-2.66,0-1.13.32-2.14.95-3.03.64-.9,1.56-1.62,2.74-2.14,1.18-.53,2.58-.79,4.2-.79.8,0,1.54.07,2.21.21.39-1.11.9-2.02,1.53-2.72.67-.73,1.52-1.1,2.56-1.1.89,0,1.56.25,2,.74.44.49.66,1.14.66,1.93,0,.7-.18,1.25-.55,1.64-.35.39-.86.58-1.53.58-.4,0-.73-.11-1-.32-.27-.23-.51-.48-.72-.77-.21-.29-.43-.54-.66-.76-.21-.23-.47-.34-.77-.34-.33,0-.61.13-.82.39-.16.19-.31.45-.43.78.55.13,1.05.3,1.51.53,1.1.53,1.92,1.21,2.48,2.05.57.84.85,1.73.85,2.67,0,1.08-.32,2.07-.97,2.95-.64.87-1.52,1.56-2.64,2.08-1.12.52-2.38.77-3.8.77-.56,0-1.09-.03-1.59-.09ZM11.5,23.29c-.02.06-.05.14-.07.23-.04.17-.06.37-.06.58,0,1.4.38,2.51,1.14,3.35.77.84,1.87,1.26,3.3,1.26.77,0,1.41-.08,1.92-.23.52-.14.9-.37,1.14-.69.26-.32.39-.75.39-1.27,0-.46-.13-.86-.4-1.19-.27-.33-.75-.62-1.43-.85-.69-.23-1.65-.42-2.9-.6-1.24-.18-2.25-.37-3.02-.59ZM14.58,6.9c-.31.04-.56.28-.76.72-.19.43-.31,1.04-.35,1.84-.03.79.03,1.74.18,2.85.16,1.12.37,2.06.61,2.82.26.75.54,1.32.85,1.69.31.37.62.53.92.48.45-.06.77-.56.97-1.5.2-.94.19-2.26-.05-3.95-.24-1.66-.58-2.92-1.03-3.77-.45-.86-.9-1.26-1.34-1.19Z"/>
</svg>